<?xml version="1.0" encoding="UTF-8"?>
<svg id="Layer_1" data-name="Layer 1" xmlns="http://www.w3.org/2000/svg" viewBox="0 0 31.98 24.19">
  <defs>
    <style>
      .cls-1 {
        fill: #e00;
      }
    </style>
  </defs>
  <path d="m26.42,10.44c.04.19.06.38.05.57,0,2.5-3.04,2.94-5.15,2.94-8.18,0-14.28-5.08-14.28-6.64,0-.11,0-.22.04-.33l-.62,1.52c-.17.39-.25.81-.25,1.23,0,3.04,6.89,7.65,14.75,7.65,3.48,0,6.12-1.3,6.12-3.66,0-.18,0-.33-.29-1.7l-.38-1.58Z"/>
  <path class="cls-1" d="m21.33,13.94c2.1,0,5.14-.43,5.14-2.93,0-.19-.01-.39-.05-.57l-1.25-5.44c-.29-1.2-.54-1.74-2.64-2.79-1.63-.83-5.18-2.21-6.23-2.21-.98,0-1.26,1.26-2.43,1.26s-1.96-.94-3.01-.94-1.66.69-2.17,2.1c0,0-1.41,3.98-1.59,4.56-.03.11-.04.22-.04.33,0,1.55,6.1,6.63,14.27,6.63m5.47-1.91c.29,1.38.29,1.52.29,1.7,0,2.35-2.64,3.66-6.12,3.66-7.86,0-14.74-4.6-14.74-7.64,0-.42.09-.84.25-1.23-2.83.14-6.48.65-6.48,3.87,0,5.29,12.53,11.81,22.45,11.81,7.61,0,9.53-3.44,9.53-6.16,0-2.14-1.85-4.56-5.18-6.01"/>
</svg>